# xmcd CD database file generated by OrangeCD 6.5
#
# Track frame offsets:
#	150
#	13021
#	25279
#	35892
#	51164
#	69068
#	81535
#	98230
#	117179
#	130709
#	142727
#	159342
#	174348
#	188089
#	209668
#	230032
#	240993
#
# Disc length: 3409 seconds
#
# Revision: 0
# Processed by: cddbd v1.5.2PL0 Copyright (c) Steve Scherf et al.
# Submitted via: OrangeCD 6.5
#
DISCID=e00d4f11
DTITLE=Philomena Begley - How I Love Them Old Songs
DYEAR=1900
DGENRE=
TTITLE0=I  Ain't Over The Hill
TTITLE1=How I Love Them Old Songs
TTITLE2=Burning An Old Memory
TTITLE3=Waltz Through A Lifetime With You
TTITLE4=Sorry
TTITLE5=Taste Of Life
TTITLE6=Raglan Road
TTITLE7=The Story I Tell You Is True
TTITLE8=The Star
TTITLE9=Your Health Is Your Wealth
TTITLE10=Don't Tell Me This Is How The Story Ends
TTITLE11=Heartaches By The Number
TTITLE12=It Only Hurts For A Little While
TTITLE13=Philomena Begley with Aidan Quinn - All The Road Running
TTITLE14=I'm Going To California
TTITLE15=Sentimental Journey
TTITLE16=Philomena Begley with Moore and Moore - Country Girls Never Grow Old
EXTD=
EXTT0=
EXTT1=
EXTT2=
EXTT3=
EXTT4=
EXTT5=
EXTT6=
EXTT7=
EXTT8=
EXTT9=
EXTT10=
EXTT11=
EXTT12=
EXTT13=
EXTT14=
EXTT15=
EXTT16=
PLAYORDER=
